<svg xmlns="http://www.w3.org/2000/svg" xmlns:xlink="http://www.w3.org/1999/xlink" id="ingress" width="2048" height="2048" x="0" y="0" baseProfile="tiny" overflow="inherit" version="1.1" viewBox="0 0 2048 2048" xml:space="preserve"><metadata><?xpacket begin="﻿" id="W5M0MpCehiHzreSzNTczkc9d"?><?xpacket end="w"?></metadata><switch><g><g><polygon fill="#09AEED" points="1024 2039.496 144.555 1531.75 144.555 516.252 1024 8.504 1903.445 516.252 1903.445 1531.746"/><polygon fill="#75D2F5" points="1024 105.053 455.428 433.318 455.428 433.318 1125.801 965.229 1196.789 1843.188 1819.832 1483.473 1819.832 564.525"/><path fill="#FFF" d="M1542.449,724.676H505.555l518.447,897.977L1542.449,724.676z M1070,1358.98v-308.422l267.102-154.211 L1070,1358.98z M1291.102,816.676l-267.098,154.211L756.902,816.676H1291.102z M710.902,896.35l267.1,154.209v308.422 L710.902,896.35z"/><path fill="#FFF" d="M1024.002,200.504l-713.17,411.75v823.496l713.17,411.75l713.17-411.75V612.254L1024.002,200.504z M1403.586,1190.039l-46,79.676l241.586,139.48l-575.17,332.074l-575.17-332.074l241.586-139.48l-46-79.676l-241.586,139.48 v-664.15l575.17-332.074v278.959H1070V333.293l575.172,332.076v664.15L1403.586,1190.039z"/></g></g></switch></svg>