<svg xmlns="http://www.w3.org/2000/svg" xmlns:xlink="http://www.w3.org/1999/xlink" id="resistance" width="720" height="960" x="0" y="0" baseProfile="tiny" overflow="inherit" version="1.1" viewBox="0 0 720 960" xml:space="preserve"><metadata><?xpacket begin="﻿" id="W5M0MpCehiHzreSzNTczkc9d"?><?xpacket end="w"?></metadata><switch><g><g><path fill="#0592D0" d="M376.255,92.708c10.029,7.949,17.189,23.014,18.546,40.759h181.158v469.174L360,790.641l-215.959-188 V133.466H325.2c1.355-17.745,8.517-32.81,18.546-40.759H106.69v545.069L360,858.292l253.31-220.516V92.708H376.255z"/><path fill="#0592D0" d="M541.348,256.491v-89.892H401.144c-8.009-17.221-23.429-28.885-41.143-28.885 c-17.715,0-33.135,11.665-41.143,28.885H178.653v89.892L326.296,385.02v14.402h-21.824v39.344h21.824v158.868h-57.433v-32.62 h35.378v-35.857h-88.915v91.439l88.915,77.405V673.83h22.055v55.777h15.776v16.934h35.858v-16.934h15.775V438.766h21.823v-39.344 h-21.823V385.02L541.348,256.491z M360,163.735c15.501,0,28.07,13.378,28.07,29.88c0,16.503-12.568,29.881-28.07,29.881 c-15.503,0-28.071-13.377-28.071-29.881C331.93,177.113,344.498,163.735,360,163.735z M307.656,319.739l-91.458-79.618v-19.487 h102.66c8.008,17.22,23.428,28.885,41.143,28.885c17.714,0,33.134-11.665,41.143-28.885h102.658v19.487l-91.457,79.618H307.656z"/></g></g></switch></svg>